<svg width="30" height="30" viewBox="0 0 30 30" fill="none" xmlns="http://www.w3.org/2000/svg">
<path d="M15.8063 15.0123L14.0438 16.7748C13.0688 17.7498 13.0688 19.3373 14.0438 20.3123C15.0188 21.2873 16.6063 21.2873 17.5813 20.3123L20.3563 17.5373C21.2928 16.5982 21.8186 15.326 21.8186 13.9998C21.8186 12.6736 21.2928 11.4014 20.3563 10.4623C19.4172 9.52586 18.1451 9 16.8188 9C15.4926 9 14.2205 9.52586 13.2813 10.4623L10.2563 13.4873C9.85806 13.8852 9.5421 14.3578 9.32653 14.8779C9.11096 15.398 9 15.9555 9 16.5185C9 17.0816 9.11096 17.6391 9.32653 18.1592C9.5421 18.6793 9.85806 19.1519 10.2563 19.5498" stroke="#5020FF" stroke-width="1.5" stroke-linecap="round" stroke-linejoin="round"/>
<path d="M5 7.5C3.4375 9.5875 2.5 12.1875 2.5 15C2.5 21.9 8.1 27.5 15 27.5C21.9 27.5 27.5 21.9 27.5 15C27.5 8.1 21.9 2.5 15 2.5C13.2125 2.5 11.5 2.875 9.9625 3.5625" stroke="#5020FF" stroke-width="1.5" stroke-linecap="round" stroke-linejoin="round"/>
</svg>
