<svg width="30" height="30" viewBox="0 0 30 30" fill="none" xmlns="http://www.w3.org/2000/svg">
<path d="M11.25 27.5H18.75C25 27.5 27.5 25 27.5 18.75V11.25C27.5 5 25 2.5 18.75 2.5H11.25C5 2.5 2.5 5 2.5 11.25V18.75C2.5 25 5 27.5 11.25 27.5Z" stroke="#2A2E3B" stroke-width="1.5" stroke-linecap="round" stroke-linejoin="round"/>
<path d="M21.25 3.05V15.525C21.25 17.9875 19.4875 18.95 17.325 17.65L15.675 16.6625C15.3 16.4375 14.7 16.4375 14.325 16.6625L12.675 17.65C10.5125 18.9375 8.75 17.9875 8.75 15.525V3.05" stroke="#2A2E3B" stroke-width="1.5" stroke-linecap="round" stroke-linejoin="round"/>
<path d="M11.25 27.5H18.75C25 27.5 27.5 25 27.5 18.75V11.25C27.5 5 25 2.5 18.75 2.5H11.25C5 2.5 2.5 5 2.5 11.25V18.75C2.5 25 5 27.5 11.25 27.5Z" stroke="#2A2E3B" stroke-width="1.5" stroke-linecap="round" stroke-linejoin="round"/>
<path d="M21.25 3.05V15.525C21.25 17.9875 19.4875 18.95 17.325 17.65L15.675 16.6625C15.3 16.4375 14.7 16.4375 14.325 16.6625L12.675 17.65C10.5125 18.9375 8.75 17.9875 8.75 15.525V3.05" stroke="#2A2E3B" stroke-width="1.5" stroke-linecap="round" stroke-linejoin="round"/>
</svg>
