<svg width="27" height="28" viewBox="0 0 27 28" fill="none" xmlns="http://www.w3.org/2000/svg">
<path d="M26.4443 13.2222C26.4443 20.5247 20.5247 26.4443 13.2222 26.4443C5.92042 26.4443 0 20.5247 0 13.2222C0 5.92042 5.92042 0 13.2222 0C20.5247 0 26.4443 5.92042 26.4443 13.2222Z" fill="#FFCC4D"/>
<path d="M13.2222 20.9999C16.229 20.9999 18.6666 18.3882 18.6666 15.1666C18.6666 11.9449 16.229 9.33328 13.2222 9.33328C10.2153 9.33328 7.77774 11.9449 7.77774 15.1666C7.77774 18.3882 10.2153 20.9999 13.2222 20.9999Z" fill="#664500"/>
<path d="M16.6973 21.2885C16.6973 21.2885 17.4727 20.7277 16.8256 20.0331C16.1785 19.3386 15.5648 20.0736 15.5648 20.0736L12.3386 23.0805C12.2849 22.921 11.9816 22.5026 11.9108 22.3439L16.3869 18.1704C16.3869 18.1704 17.1631 17.6096 16.5145 16.9143C15.8674 16.2205 15.2529 16.9539 15.2529 16.9539L11.0428 20.8786C10.9456 20.7557 10.6843 20.4586 10.5808 20.3357L15.4622 15.7857C15.4622 15.7857 16.2376 15.2242 15.5897 14.5304C14.9426 13.8358 14.3289 14.57 14.3289 14.57L9.44607 19.1185C9.3294 19.0057 8.97007 18.6448 8.85185 18.5383L13.4143 14.2854C13.4143 14.2854 14.1889 13.7238 13.5418 13.0301C12.8939 12.3355 12.2811 13.0697 12.2811 13.0697L7.45652 17.566L7.06997 17.9269L6.89886 18.0879C6.89886 18.0879 6.48041 18.6666 6.05342 18.2271L7.48608 14.9932C7.48608 14.9932 7.93718 14.1578 7.10263 13.7059C6.26653 13.2541 5.81542 14.0894 5.81542 14.0894L4.51809 16.2345C4.00242 17.0846 3.46887 17.9285 2.83887 18.6977C1.06244 20.87 1.11922 24.0752 3.08621 26.1869C5.23209 28.4883 8.83862 28.6151 11.1401 26.47L11.4877 26.1449L16.6973 21.2885Z" fill="#F4900C"/>
<path d="M7.79019 4.72885C6.03631 5.19863 5.08353 6.25718 5.0252 6.32329C4.74209 6.64607 4.77398 7.13762 5.09598 7.42151C5.41875 7.7054 5.90953 7.67429 6.19342 7.35073C6.25486 7.28307 7.81897 5.59841 10.7123 6.19029C11.1338 6.27663 11.5445 6.0044 11.6301 5.58441C11.7164 5.16363 11.4449 4.75219 11.0242 4.66663C9.75251 4.4053 8.67063 4.49319 7.79019 4.72885ZM18.6541 4.72963C17.7737 4.49397 16.6918 4.40608 15.4194 4.66586C14.9986 4.75219 14.7272 5.16285 14.8135 5.58363C14.9006 6.0044 15.3105 6.27585 15.7313 6.18951C18.6277 5.59685 20.1887 7.28229 20.2532 7.35384C20.5387 7.6704 21.031 7.69917 21.3499 7.41451C21.6688 7.12984 21.7007 6.64373 21.4184 6.32251C21.36 6.25718 20.4072 5.19941 18.6541 4.72963Z" fill="#664500"/>
</svg>
