<svg width="35" height="35" viewBox="0 0 35 35" fill="none" xmlns="http://www.w3.org/2000/svg">
<path d="M32.0833 32.0833L29.1667 29.1667M16.7708 30.625C18.5902 30.625 20.3917 30.2666 22.0726 29.5704C23.7535 28.8742 25.2807 27.8537 26.5672 26.5672C27.8537 25.2807 28.8742 23.7534 29.5704 22.0726C30.2667 20.3917 30.625 18.5902 30.625 16.7708C30.625 14.9515 30.2667 13.1499 29.5704 11.4691C28.8742 9.7882 27.8537 8.26093 26.5672 6.97445C25.2807 5.68797 23.7535 4.66748 22.0726 3.97124C20.3917 3.275 18.5902 2.91666 16.7708 2.91666C13.0965 2.91666 9.57262 4.37629 6.97446 6.97445C4.3763 9.57261 2.91667 13.0965 2.91667 16.7708C2.91667 20.4452 4.3763 23.969 6.97446 26.5672C9.57262 29.1654 13.0965 30.625 16.7708 30.625Z" stroke="#78A79E" stroke-width="1.5" stroke-linecap="round" stroke-linejoin="round"/>
</svg>
