<svg width="49" height="49" viewBox="0 0 49 49" fill="none" xmlns="http://www.w3.org/2000/svg">
<path d="M24.5 30.625C26.1245 30.625 27.6824 29.9797 28.831 28.831C29.9797 27.6824 30.625 26.1245 30.625 24.5C30.625 22.8755 29.9797 21.3176 28.831 20.169C27.6824 19.0203 26.1245 18.375 24.5 18.375C22.8755 18.375 21.3176 19.0203 20.169 20.169C19.0203 21.3176 18.375 22.8755 18.375 24.5C18.375 26.1245 19.0203 27.6824 20.169 28.831C21.3176 29.9797 22.8755 30.625 24.5 30.625Z" stroke="#2A2E3B" stroke-width="1.5" stroke-miterlimit="10" stroke-linecap="round" stroke-linejoin="round"/>
<path d="M4.08331 26.2967V22.7033C4.08331 20.58 5.81873 18.8242 7.96248 18.8242C11.6579 18.8242 13.1687 16.2108 11.3108 13.0054C10.2491 11.1679 10.8821 8.77917 12.74 7.7175L16.2721 5.69625C17.885 4.73667 19.9675 5.30834 20.9271 6.92125L21.1516 7.30917C22.9891 10.5146 26.0108 10.5146 27.8687 7.30917L28.0933 6.92125C29.0529 5.30834 31.1354 4.73667 32.7483 5.69625L36.2804 7.7175C38.1383 8.77917 38.7712 11.1679 37.7096 13.0054C35.8516 16.2108 37.3625 18.8242 41.0579 18.8242C43.1812 18.8242 44.9371 20.5596 44.9371 22.7033V26.2967C44.9371 28.42 43.2016 30.1758 41.0579 30.1758C37.3625 30.1758 35.8516 32.7892 37.7096 35.9946C38.7712 37.8525 38.1383 40.2208 36.2804 41.2825L32.7483 43.3038C31.1354 44.2633 29.0529 43.6917 28.0933 42.0788L27.8687 41.6908C26.0312 38.4854 23.0096 38.4854 21.1516 41.6908L20.9271 42.0788C19.9675 43.6917 17.885 44.2633 16.2721 43.3038L12.74 41.2825C11.85 40.7701 11.1997 39.9255 10.9318 38.9341C10.6638 37.9427 10.8001 36.8856 11.3108 35.9946C13.1687 32.7892 11.6579 30.1758 7.96248 30.1758C5.81873 30.1758 4.08331 28.42 4.08331 26.2967Z" stroke="#2A2E3B" stroke-width="1.5" stroke-miterlimit="10" stroke-linecap="round" stroke-linejoin="round"/>
</svg>
