<svg width="25" height="29" viewBox="0 0 25 29" fill="none" xmlns="http://www.w3.org/2000/svg">
<path d="M16.7129 24.7504C15.6209 26.3883 14.256 27.2073 12.618 27.2073C10.9801 27.2073 9.61509 26.3883 8.52312 24.7504M20.9462 22.2934H4.28978C2.79651 22.2934 1.58598 21.0829 1.58598 19.5896C1.58598 19.0996 1.71916 18.6188 1.97129 18.1985C3.57898 15.5191 4.42823 12.453 4.42823 9.32823V7.55182C4.42823 3.93335 7.36158 0.999994 10.9801 0.999994H14.256C17.8744 0.999994 20.8078 3.93335 20.8078 7.55182V9.32823C20.8078 12.453 21.657 15.5191 23.2647 18.1985C24.033 19.479 23.6178 21.1398 22.3373 21.9081C21.9171 22.1603 21.4363 22.2934 20.9462 22.2934Z" stroke="#2A2E3B" stroke-width="1.8" stroke-linecap="round" stroke-linejoin="round"/>
</svg>
